<?xml version="1.0" standalone="no"?>
<!DOCTYPE svg PUBLIC "-//W3C//DTD SVG 20010904//EN"
 "http://www.w3.org/TR/2001/REC-SVG-20010904/DTD/svg10.dtd">
<svg version="1.0" xmlns="http://www.w3.org/2000/svg"
 width="1024.000000pt" height="295.000000pt" viewBox="0 0 1024.000000 295.000000"
 preserveAspectRatio="xMidYMid meet">

<g transform="translate(0.000000,295.000000) scale(0.100000,-0.100000)"
fill="#000000" stroke="none">
<path d="M518 2890 c-427 -31 -434 -32 -458 -89 -9 -23 2 -176 60 -807 160
-1757 170 -1865 185 -1895 25 -47 56 -50 442 -47 l353 3 27 28 28 28 -2 182
c-1 100 -7 650 -13 1222 -6 572 -13 1109 -16 1194 -6 153 -7 155 -34 183 -36
35 -37 35 -572 -2z"/>
<path d="M7798 2746 c-13 -6 -27 -23 -32 -37 -9 -27 3 -57 194 -474 50 -110
158 -346 240 -525 649 -1422 712 -1556 736 -1577 14 -13 35 -25 48 -29 41 -10
913 41 930 55 8 7 17 24 20 39 3 15 39 304 80 642 41 338 96 791 123 1007 51
422 51 429 0 467 l-27 20 -272 -17 c-281 -17 -304 -22 -327 -66 -6 -10 -40
-243 -76 -516 -36 -274 -67 -501 -70 -503 -7 -7 4 -24 -128 203 -602 1032
-727 1242 -750 1258 -22 17 -63 22 -299 38 -150 10 -294 20 -320 22 -26 2 -58
-1 -70 -7z"/>
<path d="M2895 2446 c-225 -39 -420 -77 -432 -84 -41 -22 -46 -47 -44 -211 1
-86 4 -171 8 -189 10 -58 28 -59 232 -11 179 41 183 42 201 23 16 -15 26 -64
51 -237 32 -215 32 -219 13 -237 -15 -15 -59 -24 -219 -45 -214 -28 -251 -37
-257 -63 -2 -9 0 -147 5 -307 7 -231 12 -295 24 -314 15 -23 17 -23 127 -17
61 4 125 9 141 12 21 4 38 0 53 -13 22 -17 24 -31 37 -238 13 -205 15 -221 36
-237 11 -10 35 -18 53 -18 17 0 354 -16 750 -36 719 -36 719 -36 739 -16 20
20 20 20 -63 379 -45 197 -89 368 -97 381 -8 13 -24 27 -36 33 -12 5 -203 40
-425 78 -222 37 -408 73 -415 80 -8 8 -8 14 0 22 10 10 260 87 568 175 189 53
225 75 225 134 0 41 -138 797 -152 833 -6 15 -23 34 -37 42 -49 25 -579 155
-629 154 -26 0 -231 -33 -457 -73z"/>
<path d="M7670 2467 c0 -1 -20 -173 -45 -382 -181 -1522 -225 -1912 -221
-1930 3 -11 19 -34 36 -50 30 -29 32 -29 188 -36 86 -4 273 -10 414 -12 234
-5 259 -4 279 12 21 17 21 18 23 532 l1 514 -299 625 c-164 344 -309 649 -323
678 -14 28 -32 52 -39 52 -8 0 -14 -1 -14 -3z"/>
<path d="M4992 2416 c-162 -36 -198 -47 -219 -69 l-26 -25 -28 -514 c-70
-1283 -72 -1319 -62 -1341 10 -21 415 -305 457 -321 17 -6 327 25 394 40 12 2
27 15 32 28 14 38 15 675 1 689 -7 7 -72 16 -157 23 -112 8 -149 15 -162 27
-15 16 -15 46 11 465 33 542 13 492 196 478 172 -13 161 -30 161 268 0 170 -3
237 -13 249 -10 14 -44 20 -177 32 -91 8 -176 14 -190 14 -14 0 -112 -20 -218
-43z"/>
<path d="M5732 2418 c-9 -9 -12 -81 -12 -265 0 -288 -5 -273 92 -273 84 0 128
-11 143 -34 7 -12 48 -215 90 -453 80 -455 81 -463 34 -478 -12 -4 -68 -4
-124 0 -85 6 -104 4 -117 -9 -13 -12 -17 -67 -23 -332 -7 -317 -7 -318 14
-335 14 -12 33 -16 54 -13 17 2 201 18 407 34 206 17 391 33 410 36 19 3 132
54 250 112 160 80 218 113 227 132 16 31 19 1544 3 1584 -5 14 -20 32 -34 41
-13 9 -163 63 -332 120 l-309 104 -355 21 c-414 24 -403 23 -418 8z"/>
<path d="M1685 2334 c-99 -13 -190 -28 -202 -34 -12 -5 -25 -20 -27 -32 -3
-13 -14 -173 -26 -357 -15 -252 -18 -337 -9 -347 14 -18 51 -17 162 1 99 16
115 13 123 -22 6 -23 -33 -568 -71 -998 -14 -149 -13 -161 3 -177 13 -12 93
-26 337 -57 176 -23 334 -41 351 -41 56 0 58 9 50 238 -3 114 -13 412 -21 662
-37 1139 -35 1104 -53 1122 -17 17 -24 17 -142 -2 -160 -26 -170 -25 -196 25
-18 36 -24 40 -60 42 -21 1 -120 -10 -219 -23z"/>
</g>
</svg>
